<mxfile host="Electron" modified="2024-06-16T06:23:02.145Z" agent="Mozilla/5.0 (X11; Linux x86_64) AppleWebKit/537.36 (KHTML, like Gecko) draw.io/24.5.3 Chrome/124.0.6367.207 Electron/30.0.6 Safari/537.36" etag="5dlwUlIw_aylFeQhjzQc" version="24.5.3" type="device">
  <diagram name="Page-1" id="9xiVWqOlvJN3zgiQfKd6">
    <mxGraphModel dx="880" dy="538" grid="1" gridSize="10" guides="1" tooltips="1" connect="1" arrows="1" fold="1" page="0" pageScale="1" pageWidth="850" pageHeight="1100" math="0" shadow="0">
      <root>
        <mxCell id="0" />
        <mxCell id="1" parent="0" />
        <mxCell id="tRrJFSro7rsSM3rNTlhQ-1" value="" style="strokeWidth=2;outlineConnect=0;dashed=0;align=center;html=1;fontSize=8;shape=mxgraph.eip.channel_adapter;fillColor=#9ddbef;" vertex="1" parent="1">
          <mxGeometry x="200" y="80" width="45" height="90" as="geometry" />
        </mxCell>
        <mxCell id="tRrJFSro7rsSM3rNTlhQ-2" value="" style="html=1;strokeWidth=2;outlineConnect=0;dashed=0;align=center;fontSize=8;shape=mxgraph.eip.message_translator;fillColor=#c0f5a9;verticalLabelPosition=bottom;verticalAlign=top;" vertex="1" parent="1">
          <mxGeometry x="310" y="80" width="150" height="90" as="geometry" />
        </mxCell>
        <mxCell id="tRrJFSro7rsSM3rNTlhQ-3" value="" style="html=1;strokeWidth=2;outlineConnect=0;dashed=0;align=center;fontSize=8;shape=mxgraph.eip.message_translator;fillColor=#c0f5a9;verticalLabelPosition=bottom;verticalAlign=top;" vertex="1" parent="1">
          <mxGeometry x="520" y="80" width="150" height="90" as="geometry" />
        </mxCell>
        <mxCell id="tRrJFSro7rsSM3rNTlhQ-4" value="" style="html=1;strokeWidth=2;outlineConnect=0;dashed=0;align=center;fontSize=8;shape=mxgraph.eip.message_translator;fillColor=#c0f5a9;verticalLabelPosition=bottom;verticalAlign=top;" vertex="1" parent="1">
          <mxGeometry x="730" y="80" width="150" height="90" as="geometry" />
        </mxCell>
        <mxCell id="tRrJFSro7rsSM3rNTlhQ-5" value="" style="strokeWidth=1;outlineConnect=0;dashed=0;align=center;fontSize=8;shape=mxgraph.eip.messageChannel;html=1;verticalLabelPosition=bottom;verticalAlign=top;" vertex="1" parent="1">
          <mxGeometry x="780" y="220" width="100" height="20" as="geometry" />
        </mxCell>
        <mxCell id="tRrJFSro7rsSM3rNTlhQ-6" value="" style="fillColor=#c0f5a9;dashed=0;outlineConnect=0;strokeWidth=2;html=1;align=center;fontSize=8;verticalLabelPosition=bottom;verticalAlign=top;shape=mxgraph.eip.messaging_gateway;" vertex="1" parent="1">
          <mxGeometry x="940" y="80" width="150" height="90" as="geometry" />
        </mxCell>
        <mxCell id="tRrJFSro7rsSM3rNTlhQ-13" value="" style="edgeStyle=none;html=1;strokeColor=#808080;endArrow=block;endSize=10;dashed=0;verticalAlign=bottom;strokeWidth=2;rounded=0;" edge="1" parent="1" source="tRrJFSro7rsSM3rNTlhQ-1" target="tRrJFSro7rsSM3rNTlhQ-2">
          <mxGeometry width="160" relative="1" as="geometry">
            <mxPoint x="520" y="180" as="sourcePoint" />
            <mxPoint x="680" y="180" as="targetPoint" />
          </mxGeometry>
        </mxCell>
        <mxCell id="tRrJFSro7rsSM3rNTlhQ-14" value="" style="edgeStyle=none;html=1;strokeColor=#808080;endArrow=block;endSize=10;dashed=0;verticalAlign=bottom;strokeWidth=2;rounded=0;" edge="1" parent="1" source="tRrJFSro7rsSM3rNTlhQ-2" target="tRrJFSro7rsSM3rNTlhQ-3">
          <mxGeometry width="160" relative="1" as="geometry">
            <mxPoint x="520" y="180" as="sourcePoint" />
            <mxPoint x="680" y="180" as="targetPoint" />
          </mxGeometry>
        </mxCell>
        <mxCell id="tRrJFSro7rsSM3rNTlhQ-15" value="" style="edgeStyle=none;html=1;strokeColor=#808080;endArrow=block;endSize=10;dashed=0;verticalAlign=bottom;strokeWidth=2;rounded=0;" edge="1" parent="1" source="tRrJFSro7rsSM3rNTlhQ-3" target="tRrJFSro7rsSM3rNTlhQ-4">
          <mxGeometry width="160" relative="1" as="geometry">
            <mxPoint x="520" y="180" as="sourcePoint" />
            <mxPoint x="680" y="180" as="targetPoint" />
          </mxGeometry>
        </mxCell>
        <mxCell id="tRrJFSro7rsSM3rNTlhQ-16" value="" style="edgeStyle=none;html=1;strokeColor=#808080;endArrow=block;endSize=10;dashed=0;verticalAlign=bottom;strokeWidth=2;rounded=0;" edge="1" parent="1" source="tRrJFSro7rsSM3rNTlhQ-4" target="tRrJFSro7rsSM3rNTlhQ-6">
          <mxGeometry width="160" relative="1" as="geometry">
            <mxPoint x="520" y="180" as="sourcePoint" />
            <mxPoint x="680" y="180" as="targetPoint" />
          </mxGeometry>
        </mxCell>
        <mxCell id="tRrJFSro7rsSM3rNTlhQ-17" value="" style="edgeStyle=none;html=1;strokeColor=#808080;endArrow=block;endSize=10;dashed=0;verticalAlign=bottom;strokeWidth=2;rounded=0;" edge="1" parent="1" source="tRrJFSro7rsSM3rNTlhQ-6" target="tRrJFSro7rsSM3rNTlhQ-5">
          <mxGeometry width="160" relative="1" as="geometry">
            <mxPoint x="520" y="180" as="sourcePoint" />
            <mxPoint x="680" y="180" as="targetPoint" />
          </mxGeometry>
        </mxCell>
        <mxCell id="tRrJFSro7rsSM3rNTlhQ-18" value="AMQP inbound" style="text;html=1;align=center;verticalAlign=middle;whiteSpace=wrap;rounded=0;" vertex="1" parent="1">
          <mxGeometry x="192.5" y="180" width="60" height="30" as="geometry" />
        </mxCell>
        <mxCell id="tRrJFSro7rsSM3rNTlhQ-19" value="transform bytes to patient resource" style="text;html=1;align=center;verticalAlign=middle;whiteSpace=wrap;rounded=0;" vertex="1" parent="1">
          <mxGeometry x="330" y="180" width="110" height="30" as="geometry" />
        </mxCell>
        <mxCell id="tRrJFSro7rsSM3rNTlhQ-20" value="transform patient resource to HL7 ADT" style="text;html=1;align=center;verticalAlign=middle;whiteSpace=wrap;rounded=0;" vertex="1" parent="1">
          <mxGeometry x="535" y="180" width="120" height="30" as="geometry" />
        </mxCell>
        <mxCell id="tRrJFSro7rsSM3rNTlhQ-21" value="transform HL7 ADT to bytes" style="text;html=1;align=center;verticalAlign=middle;whiteSpace=wrap;rounded=0;" vertex="1" parent="1">
          <mxGeometry x="755" y="180" width="100" height="30" as="geometry" />
        </mxCell>
        <mxCell id="tRrJFSro7rsSM3rNTlhQ-22" value="null channel" style="text;html=1;align=center;verticalAlign=middle;whiteSpace=wrap;rounded=0;" vertex="1" parent="1">
          <mxGeometry x="790" y="240" width="80" height="30" as="geometry" />
        </mxCell>
        <mxCell id="tRrJFSro7rsSM3rNTlhQ-23" value="TCP (MLLP) outbound" style="text;html=1;align=center;verticalAlign=middle;whiteSpace=wrap;rounded=0;" vertex="1" parent="1">
          <mxGeometry x="972.5" y="180" width="85" height="30" as="geometry" />
        </mxCell>
      </root>
    </mxGraphModel>
  </diagram>
</mxfile>
